<?xml version="1.0" encoding="UTF-8"?><svg id="Ebene_1" xmlns="http://www.w3.org/2000/svg" viewBox="0 0 87.12 40.87"><defs><style>.cls-1{isolation:isolate;}.cls-2{fill:#fff;stroke-width:0px;}</style></defs><g id="AUREA_BULLA" class="cls-1"><g class="cls-1"><path class="cls-2" d="m9.22,17.65v-1.35l2.1-.58-1.02-2.7h-5.82l-1.05,2.7,1.7.58v1.35H0v-1.35l1.3-.58L7.45,0h1.4l6.12,15.72,1.75.58v1.35h-7.5Zm-1.8-12.1l-2.17,5.52h4.3l-2.12-5.52Z"/><path class="cls-2" d="m30.85,2.07l-2.25-.58V.15h6.15v1.35l-1.95.58v8.2c0,5.55-2.7,7.6-7.07,7.6-3.4,0-6.65-1.22-6.65-7.6V2.07l-1.92-.58V.15h7.15v1.35l-1.92.58v8.22c0,4.5,1.75,5.15,3.92,5.15,2.52,0,4.55-.88,4.55-5.17V2.07Z"/><path class="cls-2" d="m48.02,17.65l-3.92-7.87c-.72,0-1.2-.08-1.6-.15v6.1l1.92.58v1.35h-7.15v-1.35l1.92-.58V2.07l-1.92-.58V.15c1.47-.02,3.92-.02,5.32-.02,4.9,0,8.7.6,8.7,4.4,0,1.52-.6,3.9-3.72,4.85l3.32,6.35,1.6.58v1.35h-4.47Zm-5.52-10c.4.08,1.1.18,1.8.18,2.97,0,3.37-1.85,3.37-2.88,0-1.12-.47-2.95-3.37-2.95-.6,0-1.4.08-1.8.15v5.5Z"/><path class="cls-2" d="m54.85,17.65v-1.35l1.92-.58V2.07l-1.92-.58V.15h7.3c1.92,0,3.57,0,5.75-.07v4.27l-1.25.22-1-2.47h-5.57v5.75h3.47l.72-1.47h1.3v5.2h-1.27l-.72-1.77h-3.5v5.9h5.92l1.38-2.65,1.2.38-.62,4.22h-13.1Z"/><path class="cls-2" d="m79.62,17.65v-1.35l2.1-.58-1.03-2.7h-5.82l-1.05,2.7,1.7.58v1.35h-5.12v-1.35l1.3-.58,6.15-15.72h1.4l6.12,15.72,1.75.58v1.35h-7.5Zm-1.8-12.1l-2.17,5.52h4.3l-2.12-5.52Z"/><path class="cls-2" d="m.97,40.65v-1.35l1.92-.58v-13.65l-1.92-.58v-1.35c1.75-.05,4.72-.07,6.37-.07,2.85,0,7.27.07,7.27,4.32,0,1.85-.85,3.52-3.7,4.15,3.15.7,4.2,2.22,4.2,4.35,0,2.97-2,4.75-6.32,4.75H.97Zm6.12-10c3.1,0,3.9-1.5,3.9-3.07,0-1.37-.6-2.65-3.52-2.65-.4,0-.8.02-1.28.15v5.57h.9Zm-.9,1.95v6.07s.38.12,1.33.12c2.97,0,3.97-1.2,3.97-3.07s-1-3.12-4.02-3.12h-1.28Z"/><path class="cls-2" d="m31.47,25.07l-2.25-.58v-1.35h6.15v1.35l-1.95.58v8.2c0,5.55-2.7,7.6-7.07,7.6-3.4,0-6.65-1.22-6.65-7.6v-8.2l-1.92-.58v-1.35h7.15v1.35l-1.92.58v8.22c0,4.5,1.75,5.15,3.92,5.15,2.52,0,4.55-.88,4.55-5.17v-8.2Z"/><path class="cls-2" d="m37.9,40.65v-1.35l1.92-.58v-13.65l-1.92-.58v-1.35h7.77v1.35l-2.55.58v13.62h5.15l1.7-3.3,1.2.35-.67,4.9h-12.6Z"/><path class="cls-2" d="m53.32,40.65v-1.35l1.92-.58v-13.65l-1.92-.58v-1.35h7.77v1.35l-2.55.58v13.62h5.15l1.7-3.3,1.2.35-.67,4.9h-12.6Z"/><path class="cls-2" d="m77,40.65v-1.35l2.1-.58-1.02-2.7h-5.82l-1.05,2.7,1.7.58v1.35h-5.12v-1.35l1.3-.58,6.15-15.72h1.4l6.12,15.72,1.75.58v1.35h-7.5Zm-1.8-12.1l-2.17,5.52h4.3l-2.12-5.52Z"/></g></g></svg>