<?xml version="1.0" encoding="UTF-8" standalone="no"?>
<svg id="Ebene_1" data-name="Ebene 1" width="27.76" height="19.37" viewBox="0 0 27.76 19.37" version="1.1" sodipodi:docname="activity-type-multilanguage.svg" inkscape:version="1.3.1 (91b66b0, 2023-11-16)" xmlns:inkscape="http://www.inkscape.org/namespaces/inkscape" xmlns:sodipodi="http://sodipodi.sourceforge.net/DTD/sodipodi-0.dtd" xmlns="http://www.w3.org/2000/svg" xmlns:svg="http://www.w3.org/2000/svg">
  <sodipodi:namedview id="namedview2" pagecolor="#ffffff" bordercolor="#666666" borderopacity="1.0" inkscape:showpageshadow="2" inkscape:pageopacity="0.0" inkscape:pagecheckerboard="0" inkscape:deskcolor="#d1d1d1" inkscape:zoom="31.506516" inkscape:cx="13.870147" inkscape:cy="9.6805371" inkscape:window-width="1440" inkscape:window-height="855" inkscape:window-x="0" inkscape:window-y="23" inkscape:window-maximized="1" inkscape:current-layer="Ebene_1" />
  <defs id="defs1">
    <style id="style1">
      .cls-1 {
        fill: #fff;
        stroke-width: 0px;
      }
    </style>
  </defs>
  <path class="cls-1" d="M16.73,0H.28c-.16,0-.28.13-.28.28v12.68c0,.16.13.28.28.28h3.79v3.52c0,.11.07.21.17.26.04.02.07.02.11.02.07,0,.14-.03.19-.07l4.06-3.73h2.71v-.56h-2.82c-.07,0-.14.03-.19.07l-3.67,3.37v-3.16c0-.16-.13-.28-.28-.28H.56V.56h15.88v12.11h-2.91v.56h3.19c.16,0,.28-.13.28-.28V.28c0-.16-.13-.28-.28-.28Z" id="path1" style="fill:#0382a6;fill-opacity:1" />
  <path class="cls-1" d="M27.48,2.33h-11.04v.56h10.76v12.11h-3.79c-.16,0-.28.13-.28.28v3.16l-3.67-3.37c-.05-.05-.12-.07-.19-.07h-7.94V2.9h2.91v-.56h-3.19c-.16,0-.28.13-.28.28v12.68c0,.16.13.28.28.28h8.11l4.06,3.73c.05.05.12.07.19.07.04,0,.08,0,.11-.02.1-.05.17-.15.17-.26v-3.52h3.79c.16,0,.28-.13.28-.28V2.62c0-.16-.13-.28-.28-.28Z" id="path2" style="fill:#0382a6;fill-opacity:1" />
</svg>
