<?xml version="1.0" encoding="UTF-8" standalone="no"?>
<svg id="Ebene_1" data-name="Ebene 1" width="19.96" height="18.99" viewBox="0 0 19.96 18.99" version="1.1" sodipodi:docname="ab_stern.svg" inkscape:version="1.3.1 (91b66b0, 2023-11-16)" xmlns:inkscape="http://www.inkscape.org/namespaces/inkscape" xmlns:sodipodi="http://sodipodi.sourceforge.net/DTD/sodipodi-0.dtd" xmlns="http://www.w3.org/2000/svg" xmlns:svg="http://www.w3.org/2000/svg">
  <sodipodi:namedview id="namedview1" pagecolor="#ffffff" bordercolor="#666666" borderopacity="1.0" inkscape:showpageshadow="2" inkscape:pageopacity="0.0" inkscape:pagecheckerboard="0" inkscape:deskcolor="#d1d1d1" inkscape:zoom="26.942635" inkscape:cx="9.9841758" inkscape:cy="9.4831112" inkscape:window-width="1272" inkscape:window-height="748" inkscape:window-x="0" inkscape:window-y="23" inkscape:window-maximized="0" inkscape:current-layer="Ebene_1" />
  <defs id="defs1">
    <style id="style1">
      .cls-1 {
        fill: #fff;
        stroke-width: 0px;
      }
    </style>
  </defs>
  <path class="cls-1" d="M15.97,18.99c-.06,0-.12-.02-.17-.06l-5.82-4.23-5.82,4.23c-.1.07-.24.07-.34,0-.1-.07-.14-.2-.11-.32l2.22-6.84L.12,7.54c-.1-.07-.14-.21-.11-.32.04-.12.15-.2.28-.2h7.19L9.71.18c.08-.24.47-.24.55,0l2.22,6.84h7.19c.13,0,.24.08.28.2.04.12,0,.25-.11.32l-5.82,4.23,2.22,6.84c.04.12,0,.25-.11.32-.05.04-.11.06-.17.06ZM9.98,14.06c.06,0,.12.02.17.06l5.27,3.83-2.01-6.19c-.04-.12,0-.25.11-.32l5.27-3.83h-6.51c-.13,0-.24-.08-.28-.2l-2.01-6.19-2.01,6.19c-.04.12-.15.2-.28.2H1.18l5.27,3.83c.1.07.14.21.11.32l-2.01,6.19,5.27-3.83c.05-.04.11-.06.17-.06Z" id="path1" style="fill:#0382a6;stroke:none;stroke-opacity:1;fill-opacity:1" />
</svg>
